<svg width="32" height="37" viewBox="0 0 32 37" fill="none" xmlns="http://www.w3.org/2000/svg">
<path d="M4.85949e-08 18.6792C-2.36054e-09 18.6248 -1.60802e-09 18.5705 0.0194288 18.489C0.129625 17.588 0.566269 16.966 1.37245 16.6009C1.44324 16.5688 1.51361 16.4446 1.51425 16.3626C1.52342 15.1933 1.51809 14.0239 1.52364 12.8546C1.52433 12.7089 1.4865 12.6349 1.34427 12.573C0.582032 12.2414 0.157453 11.6509 0.049649 10.8285C0.0451465 10.7941 0.0170856 10.7628 0 10.7301C0 10.6758 0 10.6214 0.0190704 10.5387C0.184741 8.69816 2.19036 7.92988 3.48473 8.9514C3.61693 9.05573 3.69687 8.99072 3.79731 8.93293C4.78161 8.36665 5.76298 7.79515 6.75269 7.23849C6.93001 7.13875 6.99819 7.04576 6.98132 6.83049C6.91291 5.95753 7.25508 5.26467 8.00804 4.81881C8.74887 4.38013 9.51968 4.39651 10.2434 4.86345C10.4792 5.01563 10.6275 5.01674 10.8615 4.87749C11.8723 4.27603 12.8972 3.69826 13.9157 3.11265C13.9096 3.02824 13.9066 2.96082 13.8998 2.89378C13.7996 1.9051 14.3493 1.01533 15.2755 0.669061C15.3973 0.623536 15.5207 0.58229 15.6433 0.539062C15.8653 0.539062 16.0873 0.539062 16.3399 0.55788C16.4529 0.593638 16.537 0.604927 16.6176 0.628375C17.626 0.921762 18.2242 1.83301 18.1401 2.92861C18.1339 3.00882 18.1741 3.13646 18.234 3.1714C19.4264 3.86699 20.6248 4.55217 21.8182 5.23724C23.025 4.44439 24.1112 4.50073 24.9107 5.39184C25.5949 6.15456 25.6155 7.34908 24.952 8.14844C24.6202 8.54809 24.1929 8.80108 23.6813 8.88603C23.0007 8.99904 22.3911 8.81809 21.8669 8.37724C20.6606 9.07104 19.4721 9.75743 18.2795 10.4365C18.1491 10.5107 18.119 10.5863 18.1315 10.7347C18.2263 11.8625 17.5983 12.7689 16.5299 13.0434C15.8032 13.23 15.1576 13.038 14.5783 12.5669C13.5914 13.1349 12.6065 13.6991 11.6271 14.2726C11.5691 14.3066 11.5169 14.4214 11.5265 14.4895C11.668 15.4967 11.064 16.4243 10.2064 16.7549C10.1432 16.7793 10.0704 16.883 10.07 16.9503C10.0626 18.0373 10.0642 19.1243 10.0725 20.2113C10.073 20.2744 10.1328 20.3665 10.1901 20.3954C11.2108 20.9116 11.5849 21.5506 11.524 22.6758C11.5203 22.7438 11.5583 22.8493 11.6105 22.8798C12.5977 23.4559 13.5899 24.0233 14.5749 24.589C15.5481 23.8872 16.3484 23.8726 17.3577 24.5189C17.4096 24.5521 17.5176 24.5485 17.5737 24.5167C18.5175 23.9817 19.4586 23.4419 20.3946 22.8934C20.4576 22.8564 20.5164 22.7362 20.5071 22.6636C20.3874 21.7228 20.876 20.833 21.7381 20.4449C21.8131 20.4112 21.8871 20.3752 21.9616 20.3402C21.9616 19.7406 21.9616 19.1548 21.9616 18.569C21.9616 17.9835 21.9616 17.398 21.9616 16.8407C21.7352 16.7102 21.5196 16.6073 21.33 16.4688C21.2111 16.3821 21.1336 16.3894 21.0167 16.4574C20.1081 16.9855 19.1971 17.5095 18.2836 18.029C18.1595 18.0996 18.1144 18.1639 18.1292 18.3225C18.2644 19.7751 17.1064 20.8811 15.6808 20.6744C14.6166 20.5202 13.8226 19.5537 13.884 18.4876C13.949 17.3612 14.8408 16.4878 15.9429 16.4602C16.5196 16.4458 17.0194 16.6369 17.4532 16.9989C18.4388 16.4319 19.4074 15.8725 20.3791 15.3185C20.4884 15.2561 20.5254 15.2006 20.5105 15.0623C20.4159 14.1828 20.7264 13.4677 21.4774 12.9961C22.2525 12.5094 23.0568 12.5316 23.8205 13.0373C24.0161 13.1668 24.1549 13.1895 24.329 13.0463C24.3677 13.0145 24.4165 12.995 24.4605 12.9697C25.5611 12.3367 26.6617 11.7037 27.7589 11.0726C27.7589 11.0344 27.7621 11.0089 27.7584 10.9844C27.586 9.82154 28.1549 8.90417 29.2536 8.57431C30.2652 8.27063 31.3502 8.7742 31.8072 9.76463C31.8828 9.92839 31.9363 10.1023 32 10.2715C32 10.4936 32 10.7156 31.9822 10.9683C31.7903 11.7507 31.3678 12.2944 30.6477 12.6013C30.5831 12.6288 30.5204 12.7482 30.5199 12.8254C30.5119 14.0057 30.5169 15.1861 30.5109 16.3665C30.5102 16.5056 30.5462 16.5764 30.6807 16.6271C31.0904 16.7814 31.4234 17.0481 31.6389 17.4259C31.7897 17.6904 31.8817 17.9885 32 18.2715C32 18.4936 32 18.7156 31.9815 18.9662C31.7654 19.7336 31.3458 20.2795 30.6193 20.5714C30.5639 20.5936 30.5191 20.715 30.5187 20.7905C30.5124 21.9678 30.5174 23.145 30.5104 24.3222C30.5094 24.4766 30.5673 24.5386 30.7018 24.5931C31.0705 24.7425 31.3925 24.9715 31.5925 25.3173C31.757 25.6018 31.8663 25.9183 32 26.2206C32 26.4426 32 26.6646 31.9817 26.9159C31.85 27.389 31.6543 27.7892 31.3101 28.0995C30.5373 28.7966 29.4529 28.8527 28.5907 28.2571C28.5165 28.2058 28.376 28.1611 28.313 28.1964C27.2146 28.8132 26.1236 29.443 25.0409 30.0644C25.0363 30.0999 25.0302 30.117 25.0326 30.1329C25.1689 31.0579 24.8105 31.8897 24.046 32.3309C23.2246 32.8049 22.4104 32.7533 21.64 32.2015C21.5156 32.1123 21.4404 32.1318 21.3283 32.1969C20.3179 32.7838 19.3071 33.3698 18.2908 33.9463C18.1411 34.0312 18.0789 34.1107 18.0829 34.295C18.1047 35.3005 17.4053 36.1758 16.4277 36.3964C16.352 36.4135 16.2784 36.4403 16.2038 36.4626C16.0156 36.4626 15.8275 36.4626 15.6106 36.4441C14.3502 36.1523 13.7287 35.1149 13.8231 34.1179C13.8291 34.0549 13.7472 33.9565 13.6809 33.9179C12.6923 33.3421 11.6977 32.7767 10.7096 32.2001C10.5686 32.1178 10.4837 32.1359 10.3543 32.2289C9.79098 32.6336 9.16801 32.7425 8.49552 32.5566C7.67861 32.3307 6.85743 31.5073 6.97882 30.2801C6.99039 30.1631 7.00555 30.0673 6.86274 29.9869C5.85869 29.4215 4.86098 28.8448 3.86478 28.2656C3.73869 28.1923 3.65148 28.1961 3.52596 28.2764C2.49276 28.9373 1.15108 28.6303 0.528767 27.5993C-0.0959785 26.5643 0.264159 25.2365 1.34216 24.6417C1.48471 24.5631 1.52461 24.4804 1.52376 24.3274C1.51733 23.1641 1.51523 22.0006 1.52392 20.8373C1.5252 20.6659 1.47486 20.5878 1.31847 20.5195C0.651136 20.2282 0.242987 19.7171 0.0864583 19.005C0.0623614 18.8953 0.0290501 18.7877 4.85949e-08 18.6792ZM16.8784 4.66238C16.7835 4.68881 16.6886 4.71524 16.5922 4.74207C16.5922 6.12965 16.5922 7.50266 16.5922 8.83935C16.9643 9.02144 17.3165 9.19378 17.6894 9.37626C18.9 8.6767 20.1438 7.95791 21.3577 7.25643C21.3577 6.98769 21.3649 6.75928 21.3533 6.53183C21.3499 6.4632 21.3129 6.36558 21.26 6.33468C20.0981 5.6557 18.9328 4.9825 17.7633 4.31655C17.7048 4.28319 17.5936 4.30393 17.5237 4.33601C17.3169 4.43091 17.1185 4.54414 16.8784 4.66238ZM26.6162 23.9857C27.2305 24.3413 27.8448 24.6969 28.4255 25.033C28.738 24.8406 29.0244 24.6642 29.3431 24.4679C29.3431 23.25 29.3446 21.9856 29.3378 20.7212C29.3375 20.6671 29.2703 20.5993 29.2173 20.5618C28.9634 20.3822 28.7077 20.2042 28.443 20.0413C28.3775 20.0009 28.2597 19.9848 28.1941 20.0163C27.9809 20.1185 27.7809 20.2482 27.5756 20.3668C26.6742 20.8878 25.7726 21.4085 24.8746 21.9273C24.8746 22.2108 24.8961 22.4823 24.8669 22.7483C24.8479 22.9215 24.8917 23.0015 25.0399 23.0834C25.5589 23.37 26.0688 23.6732 26.6162 23.9857ZM11.5771 31.0658C12.5491 31.6187 13.5202 32.1731 14.4949 32.7211C14.5543 32.7545 14.6592 32.7698 14.7131 32.7398C15.0192 32.5693 15.3163 32.3825 15.6376 32.1884C15.6376 30.898 15.6376 29.5603 15.6376 28.2616C15.3878 28.126 15.1523 28.0242 14.9483 27.8783C14.8165 27.784 14.7304 27.7748 14.5947 27.8551C13.9824 28.2174 13.3638 28.5691 12.748 28.9257C12.2667 29.2044 11.7862 29.4847 11.3679 29.7279C11.386 30.1255 11.3946 30.4688 11.4224 30.8105C11.4291 30.8932 11.4996 30.9707 11.5771 31.0658ZM25.6852 15.6941C26.571 16.2057 27.4568 16.7174 28.2774 17.1913C28.6269 16.9732 28.9282 16.791 29.2216 16.5968C29.2777 16.5597 29.3363 16.4753 29.3366 16.4123C29.3434 15.2065 29.343 14.0005 29.338 12.7947C29.3377 12.7341 29.2989 12.647 29.2505 12.6179C29.0204 12.4793 28.7808 12.3566 28.5323 12.2215C27.3232 12.9197 26.0985 13.6269 24.8879 14.326C24.8879 14.6387 24.7884 14.9898 24.9157 15.2095C25.0447 15.4324 25.3979 15.5254 25.6852 15.6941ZM3.34786 12.5305C3.26422 12.5695 3.18059 12.6085 3.06596 12.662C3.06596 13.9059 3.06497 15.16 3.06921 16.4142C3.0694 16.4704 3.10152 16.5509 3.14516 16.5788C3.46176 16.7807 3.78516 16.972 4.14519 17.1901C4.16028 17.1817 4.23369 17.1423 4.30587 17.1007C5.25882 16.5516 6.2068 15.9935 7.16752 15.4584C7.43617 15.3087 7.61946 15.1607 7.52044 14.8235C7.49995 14.7538 7.50449 14.6676 7.52475 14.5968C7.57183 14.4323 7.49534 14.3577 7.36112 14.2811C6.34663 13.7027 5.32659 13.1329 4.3301 12.5246C3.98756 12.3155 3.7032 12.2053 3.34786 12.5305ZM3.45928 20.4366C3.10568 20.5177 3.03519 20.7447 3.05677 21.0855C3.09047 21.6176 3.0657 22.1535 3.0657 22.6878C3.0657 23.2632 3.0657 23.8387 3.0657 24.3877C3.31823 24.51 3.57347 24.6056 3.79621 24.7511C3.94739 24.8498 4.04535 24.8551 4.19856 24.7649C5.16893 24.1941 6.14082 23.6253 7.12383 23.0767C7.4109 22.9164 7.62755 22.7719 7.51268 22.3924C7.47855 22.2797 7.52466 22.1426 7.53453 22.0096C6.36884 21.3365 5.20562 20.6648 4.05257 19.999C3.85556 20.1455 3.67337 20.281 3.45928 20.4366ZM7.10752 24.5887C6.35327 25.0259 5.60007 25.465 4.84353 25.8983C4.74068 25.9572 4.67667 26.0018 4.6895 26.1446C4.71122 26.3863 4.68643 26.6318 4.69924 26.8748C4.7037 26.9595 4.7374 27.0817 4.79868 27.1184C5.78656 27.7091 6.7801 28.2904 7.7767 28.8664C7.82944 28.8968 7.93156 28.882 7.99236 28.8516C8.29064 28.7025 8.58272 28.5409 8.91708 28.3623C8.91708 28.3288 8.91708 28.2369 8.91708 28.1449C8.91708 27.0595 8.90636 25.9739 8.92361 24.8888C8.92879 24.5628 8.9182 24.2933 8.53976 24.1938C8.46262 24.1735 8.40425 24.0862 8.32703 24.0607C8.24559 24.0338 8.13354 24.0087 8.06675 24.0437C7.75223 24.2085 7.44865 24.3942 7.10752 24.5887ZM8.76432 9.78748C8.76432 9.42507 8.76432 9.06267 8.76432 8.75123C8.47972 8.58524 8.23568 8.43538 7.98325 8.30135C7.92532 8.27059 7.82228 8.26577 7.76737 8.29705C6.72339 8.89192 5.68266 9.49253 4.64511 10.0986C4.58788 10.132 4.5333 10.2214 4.53028 10.2872C4.51756 10.5642 4.5249 10.842 4.5249 11.1369C5.7238 11.8291 6.93987 12.5312 8.15244 13.2313C8.29967 13.1289 8.42731 13.0087 8.57865 12.9433C8.74306 12.8724 8.76858 12.7704 8.76748 12.6119C8.76103 11.6874 8.76432 10.7629 8.76432 9.78748ZM14.0885 10.9697C14.1217 10.721 14.155 10.4723 14.1896 10.2129C13.049 9.55386 11.9 8.88994 10.766 8.23476C10.5835 8.34637 10.427 8.4673 10.2508 8.54194C10.1043 8.60406 10.078 8.68917 10.0787 8.83037C10.0837 9.81396 10.0813 10.7976 10.0813 11.7812C10.0813 12.0852 10.0813 12.3892 10.0813 12.6453C10.3768 12.8008 10.6477 12.9202 10.8914 13.0808C11.026 13.1696 11.1119 13.1781 11.248 13.0981C12.0724 12.6135 12.8951 12.1252 13.734 11.667C14.0193 11.5112 14.1947 11.3534 14.0885 10.9697ZM20.4864 24.4647C19.7544 24.8869 19.0225 25.3091 18.3412 25.7021C18.3186 26.1105 18.2988 26.4699 18.2779 26.8502C19.2565 27.4154 20.2675 27.985 21.2621 28.5819C21.5785 28.7717 21.8554 28.9228 22.1692 28.6102C22.1805 28.5988 22.1983 28.5905 22.2143 28.5878C22.3983 28.557 22.416 28.4361 22.4151 28.274C22.4088 27.0855 22.4117 25.897 22.4116 24.7086C22.4116 24.6266 22.4116 24.5447 22.4116 24.5339C22.067 24.3529 21.7807 24.1943 21.4859 24.0537C21.4127 24.0188 21.2957 24.0103 21.2263 24.0448C20.9838 24.1652 20.7534 24.3098 20.4864 24.4647ZM16.96 28.5941C16.96 29.7742 16.9587 30.9544 16.9627 32.1345C16.963 32.2181 16.9746 32.3385 17.0282 32.3786C17.2628 32.5545 17.5148 32.7071 17.7593 32.8673C18.785 32.268 19.8247 31.6627 20.8602 31.0501C20.9242 31.0123 20.9905 30.9191 20.9941 30.8484C21.0091 30.5547 21.0004 30.2597 21.0004 29.9326C19.8771 29.2851 18.7189 28.6163 17.5578 27.9526C17.5121 27.9265 17.4294 27.9296 17.3797 27.9528C17.236 28.0201 17.1004 28.1046 16.96 28.1833C16.96 28.3075 16.96 28.4261 16.96 28.5941ZM25.7207 24.9845C25.2443 24.7089 24.7682 24.4325 24.2913 24.1579C24.0337 24.0096 23.7024 24.2025 23.7023 24.5C23.7021 25.6877 23.7115 26.8755 23.6959 28.063C23.6922 28.3463 23.7228 28.5442 24.0405 28.6181C24.1652 28.6471 24.2828 28.742 24.3832 28.8302C24.4924 28.9262 24.5716 28.9191 24.6936 28.8474C25.5767 28.328 26.4558 27.8002 27.3568 27.3133C27.7267 27.1134 27.9833 26.9248 27.8847 26.4476C27.8531 26.2946 27.8354 26.1942 27.6923 26.1137C27.0431 25.7483 26.4 25.3721 25.7207 24.9845ZM12.0722 5.80913C12.0212 5.83929 11.9731 5.87718 11.9186 5.89837C11.5461 6.0431 11.3099 6.26342 11.4367 6.70795C11.454 6.76851 11.433 6.84339 11.4181 6.90901C11.3871 7.04615 11.4416 7.117 11.5634 7.18653C12.6801 7.82443 13.792 8.47075 14.906 9.11351C15.1497 9.25418 15.2779 9.17655 15.2781 8.88935C15.2787 7.60071 15.2674 6.3119 15.2863 5.02354C15.2908 4.71325 15.2327 4.50157 14.9402 4.35397C14.8126 4.2896 14.7395 4.26379 14.6089 4.34068C13.7778 4.83016 12.94 5.30835 12.0722 5.80913ZM6.40167 19.8449C6.93005 20.1498 7.45665 20.458 7.98912 20.7556C8.05336 20.7915 8.16764 20.8037 8.22735 20.7704C8.47658 20.6317 8.71382 20.4715 8.97641 20.3059C8.97641 19.2664 8.9695 18.1969 8.9819 17.1277C8.98456 16.898 8.95439 16.7464 8.70292 16.6808C8.57754 16.6481 8.45819 16.5593 8.35831 16.4708C8.24946 16.3743 8.16433 16.3778 8.04519 16.4473C6.93252 17.0956 5.81653 17.7382 4.70284 18.3848C4.45694 18.5275 4.46552 18.7287 4.71775 18.8744C5.26795 19.1922 5.81816 19.5099 6.40167 19.8449ZM11.5381 24.2359C11.4136 24.1642 11.2924 24.0853 11.1628 24.0243C11.1136 24.0012 11.0328 23.9969 10.9873 24.022C10.7387 24.1589 10.4966 24.3077 10.2343 24.4631C10.2343 25.7786 10.2329 27.1176 10.2357 28.4566C10.2362 28.6754 10.4151 28.7646 10.615 28.6495C11.6415 28.0582 12.6616 27.4557 13.6958 26.8782C13.9844 26.7171 14.2061 26.5697 14.0917 26.1923C14.0687 26.1164 14.087 26.022 14.106 25.9407C14.1425 25.7847 14.0879 25.7013 13.9471 25.6218C13.1513 25.1725 12.3623 24.7113 11.5381 24.2359ZM23.4395 17.3311C23.4395 18.3383 23.4395 19.3455 23.4395 20.31C23.6914 20.4617 23.9049 20.5971 24.1262 20.7184C24.1786 20.7471 24.2725 20.7553 24.3213 20.7274C25.4683 20.0718 26.6124 19.411 27.755 18.7479C27.9261 18.6486 27.9265 18.5042 27.7587 18.4069C26.6231 17.7481 25.4867 17.0907 24.3468 16.4394C24.2905 16.4072 24.1854 16.4093 24.1271 16.4405C23.8983 16.5631 23.6791 16.7038 23.4395 16.848C23.4395 16.9762 23.4395 17.1287 23.4395 17.3311Z" fill="#002677"/>
</svg>
