<svg width="764" height="792" viewBox="0 0 764 792" fill="none" xmlns="http://www.w3.org/2000/svg">
<path opacity="0.09" d="M1.19057e-06 356.369C-5.78333e-08 355.037 -3.93966e-08 353.706 0.476005 351.71C3.17581 329.64 13.8736 314.403 33.6251 305.457C35.3595 304.671 37.0835 301.628 37.0992 299.62C37.3237 270.977 37.1932 242.332 37.3291 213.688C37.346 210.118 36.4192 208.305 32.9345 206.789C14.2598 198.665 3.85759 184.2 1.2164 164.054C1.10609 163.212 0.418597 162.446 0 161.645C0 160.314 0 158.982 0.467224 156.957C4.52615 111.869 53.6638 93.0488 85.376 118.072C88.6148 120.628 90.5733 119.036 93.034 117.62C117.149 103.748 141.193 89.7485 165.441 76.1122C169.785 73.669 171.456 71.3911 171.042 66.1177C169.366 44.7333 177.749 27.7607 196.197 16.8387C214.347 6.09254 233.232 6.49377 250.962 17.9321C256.741 21.6599 260.373 21.6873 266.106 18.2762C290.872 3.54243 315.983 -10.6108 340.935 -24.9562C340.786 -27.024 340.71 -28.6755 340.544 -30.3178C338.09 -54.5368 351.557 -76.3331 374.25 -84.8155C377.234 -85.9307 380.257 -86.9411 383.261 -88C388.7 -88 394.14 -88 400.327 -87.539C403.097 -86.6631 405.158 -86.3865 407.132 -85.8122C431.837 -78.6252 446.493 -56.3029 444.431 -29.4646C444.28 -27.4996 445.266 -24.3729 446.734 -23.517C475.947 -6.47749 505.308 10.3068 534.545 27.0886C564.113 7.66671 590.725 9.04685 610.311 30.8759C627.076 49.5597 627.581 78.8212 611.323 98.4028C603.195 108.193 592.727 114.39 580.191 116.471C563.516 119.24 548.582 114.807 535.739 104.008C506.185 121.003 477.068 137.817 447.848 154.451C444.653 156.27 443.917 158.121 444.222 161.757C446.544 189.385 431.158 211.589 404.982 218.311C387.178 222.883 371.361 218.18 357.168 206.639C332.99 220.554 308.86 234.374 284.865 248.424C283.443 249.257 282.165 252.068 282.399 253.737C285.865 278.409 271.069 301.131 250.056 309.232C248.508 309.828 246.725 312.369 246.714 314.018C246.533 340.644 246.573 367.273 246.776 393.899C246.787 395.446 248.254 397.701 249.658 398.411C274.664 411.054 283.83 426.709 282.338 454.272C282.248 455.937 283.178 458.522 284.458 459.269C308.643 473.381 332.952 487.28 357.086 501.138C380.928 483.946 400.535 483.588 425.264 499.421C426.535 500.235 429.181 500.146 430.556 499.367C453.679 486.261 476.737 473.038 499.668 459.601C501.212 458.697 502.651 455.75 502.424 453.972C499.492 430.927 511.462 409.13 532.584 399.624C534.422 398.797 536.234 397.914 538.059 397.057C538.059 382.37 538.059 368.02 538.059 353.67C538.059 339.327 538.059 324.984 538.059 311.333C532.513 308.136 527.231 305.614 522.584 302.222C519.672 300.097 517.773 300.277 514.909 301.942C492.649 314.88 470.33 327.714 447.949 340.441C444.907 342.171 443.803 343.745 444.165 347.63C447.478 383.214 419.106 410.307 384.179 405.245C358.108 401.467 338.653 377.792 340.159 351.674C341.75 324.082 363.6 302.686 390.602 302.012C404.73 301.659 416.975 306.339 427.603 315.208C451.75 301.318 475.481 287.615 499.287 274.043C501.966 272.515 502.873 271.155 502.508 267.769C500.19 246.222 507.798 228.705 526.196 217.154C545.186 205.231 564.892 205.775 583.601 218.161C588.395 221.335 591.795 221.89 596.06 218.383C597.008 217.604 598.203 217.127 599.282 216.507C626.247 201 653.21 185.493 680.093 170.033C680.093 169.098 680.171 168.474 680.082 167.874C675.856 139.388 689.794 116.915 716.714 108.835C741.497 101.396 768.081 113.732 779.276 137.994C781.127 142.005 782.439 146.266 784 150.411C784 155.85 784 161.288 783.563 167.479C778.863 186.647 768.51 199.964 750.868 207.482C749.286 208.156 747.75 211.082 747.737 212.972C747.541 241.885 747.664 270.801 747.517 299.715C747.5 303.124 748.383 304.859 751.678 306.1C761.715 309.879 769.873 316.414 775.152 325.669C778.848 332.148 781.102 339.449 784 346.383C784 351.821 784 357.26 783.547 363.4C778.253 382.198 767.972 395.571 750.174 402.721C748.816 403.266 747.717 406.239 747.708 408.09C747.553 436.927 747.677 465.766 747.504 494.603C747.481 498.385 748.899 499.903 752.195 501.239C761.227 504.899 769.117 510.508 774.016 518.979C778.048 525.948 780.723 533.701 784 541.106C784 546.545 784 551.983 783.551 558.138C780.324 569.729 775.53 579.531 767.098 587.134C748.163 604.209 721.597 605.583 700.472 590.993C698.654 589.738 695.211 588.641 693.667 589.508C666.759 604.617 640.029 620.045 613.501 635.265C613.389 636.135 613.241 636.554 613.298 636.944C616.638 659.604 607.857 679.978 589.126 690.787C569.002 702.399 549.054 701.134 530.181 687.617C527.131 685.433 525.289 685.91 522.543 687.505C497.789 701.881 473.023 716.238 448.124 730.36C444.458 732.439 442.933 734.385 443.031 738.9C443.564 763.532 426.429 784.974 402.479 790.379C400.623 790.798 398.821 791.454 396.994 792C392.383 792 387.773 792 382.459 791.547C351.58 784.398 336.354 758.984 338.666 734.562C338.812 733.019 336.806 730.608 335.183 729.662C310.962 715.558 286.594 701.707 262.385 687.583C258.931 685.568 256.85 686.01 253.68 688.287C239.879 698.201 224.616 700.871 208.14 696.316C188.126 690.782 168.007 670.612 170.981 640.55C171.264 637.684 171.636 635.337 168.137 633.367C143.538 619.517 119.094 605.39 94.687 591.203C91.5978 589.407 89.4614 589.499 86.3861 591.466C61.0727 607.656 28.2016 600.136 12.9548 574.881C-2.35147 549.527 6.4719 517 32.883 502.43C36.3754 500.504 37.3529 498.479 37.3322 494.73C37.1747 466.232 37.1232 437.733 37.336 409.236C37.3673 405.037 36.134 403.123 32.3025 401.451C15.9528 394.315 5.95318 381.794 2.11823 364.349C1.52785 361.664 0.711727 359.028 1.19057e-06 356.369ZM413.521 13.0067C411.195 13.6542 408.87 14.3016 406.509 14.9587C406.509 48.9495 406.509 82.5836 406.509 115.328C415.625 119.788 424.254 124.01 433.39 128.48C463.049 111.343 493.523 93.7355 523.264 76.5516C523.264 69.9685 523.44 64.3733 523.157 58.8014C523.072 57.1204 522.165 54.729 520.87 53.972C492.403 37.3395 463.852 20.8485 435.202 4.53502C433.767 3.71796 431.043 4.22585 429.329 5.01185C424.263 7.33647 419.403 10.1103 413.521 13.0067ZM652.097 486.359C667.147 495.07 682.198 503.78 696.426 512.015C704.081 507.301 711.097 502.981 718.905 498.173C718.905 468.337 718.942 437.364 718.776 406.392C718.769 405.066 717.122 403.405 715.824 402.487C709.603 398.087 703.339 393.727 696.855 389.735C695.248 388.746 692.362 388.352 690.754 389.123C685.532 391.626 680.633 394.804 675.603 397.71C653.517 410.471 631.428 423.228 609.427 435.935C609.427 442.88 609.955 449.532 609.239 456.047C608.773 460.291 609.848 462.25 613.478 464.255C626.194 471.278 638.686 478.704 652.097 486.359ZM283.64 659.798C307.452 673.342 331.245 686.921 355.125 700.346C356.58 701.164 359.151 701.538 360.47 700.803C367.971 696.627 375.248 692.051 383.122 687.297C383.122 655.686 383.122 622.918 383.122 591.104C377 587.783 371.23 585.289 366.233 581.714C363.005 579.406 360.894 579.179 357.571 581.145C342.569 590.022 327.413 598.636 312.327 607.371C300.534 614.199 288.762 621.066 278.514 627.024C278.958 636.764 279.167 645.173 279.849 653.544C280.014 655.569 281.741 657.468 283.64 659.798ZM629.286 283.245C650.989 295.778 672.691 308.311 692.796 319.921C701.358 314.578 708.741 310.116 715.928 305.358C717.304 304.448 718.738 302.38 718.747 300.839C718.914 271.299 718.903 241.758 718.78 212.219C718.774 210.736 717.822 208.603 716.637 207.889C711 204.495 705.129 201.487 699.042 198.179C669.418 215.282 639.413 232.606 609.753 249.731C609.753 257.39 607.315 265.991 610.434 271.375C613.596 276.833 622.247 279.112 629.286 283.245ZM82.0225 205.747C79.9734 206.703 77.9243 207.659 75.116 208.968C75.116 239.439 75.0917 270.162 75.1957 300.884C75.2003 302.262 75.9871 304.234 77.0564 304.916C84.8132 309.862 92.7364 314.548 101.557 319.892C101.927 319.686 103.725 318.719 105.494 317.701C128.841 304.249 152.067 290.58 175.604 277.47C182.186 273.804 186.677 270.178 184.251 261.919C183.749 260.21 183.86 258.099 184.356 256.364C185.51 252.335 183.636 250.507 180.347 248.632C155.492 234.462 130.501 220.503 106.087 205.603C97.6952 200.481 90.7283 197.78 82.0225 205.747ZM84.7523 399.419C76.0892 401.405 74.3622 406.966 74.8909 415.314C75.7166 428.35 75.1096 441.477 75.1095 454.565C75.1095 468.662 75.1095 482.758 75.1095 496.207C81.2966 499.202 87.5499 501.546 93.0072 505.109C96.711 507.527 99.111 507.656 102.865 505.448C126.639 491.464 150.45 477.531 174.534 464.091C181.567 460.166 186.875 456.625 184.061 447.33C183.224 444.568 184.354 441.211 184.596 437.953C156.037 421.464 127.538 405.01 99.288 388.699C94.4613 392.288 89.9975 395.608 84.7523 399.419ZM174.134 501.13C155.655 511.841 137.202 522.598 118.666 533.211C116.147 534.653 114.578 535.748 114.893 539.246C115.425 545.166 114.817 551.181 115.131 557.132C115.241 559.206 116.066 562.201 117.568 563.099C141.771 577.57 166.112 591.81 190.529 605.918C191.821 606.665 194.323 606.302 195.813 605.557C203.121 601.904 210.277 597.946 218.469 593.572C218.469 592.751 218.469 590.498 218.469 588.246C218.469 561.657 218.206 535.063 218.628 508.481C218.755 500.495 218.496 493.894 209.224 491.456C207.334 490.959 205.904 488.821 204.012 488.196C202.017 487.537 199.272 486.923 197.635 487.781C189.93 491.817 182.492 496.366 174.134 501.13ZM214.726 138.553C214.726 129.676 214.726 120.798 214.726 113.169C207.753 109.103 201.774 105.432 195.59 102.148C194.17 101.395 191.646 101.277 190.301 102.043C164.723 116.615 139.225 131.328 113.805 146.174C112.403 146.992 111.066 149.184 110.992 150.796C110.68 157.579 110.86 164.385 110.86 171.609C140.233 188.566 170.027 205.765 199.735 222.916C203.342 220.407 206.469 217.461 210.177 215.861C214.205 214.122 214.83 211.624 214.803 207.741C214.645 185.095 214.726 162.448 214.726 138.553ZM345.169 167.513C345.983 161.421 346.797 155.328 347.645 148.975C319.701 132.831 291.549 116.567 263.768 100.517C259.295 103.251 255.461 106.214 251.146 108.042C247.554 109.564 246.911 111.649 246.928 115.108C247.05 139.202 246.993 163.297 246.993 187.392C246.993 194.839 246.993 202.286 246.993 208.559C254.233 212.369 260.869 215.294 266.839 219.229C270.138 221.404 272.242 221.613 275.577 219.652C295.773 207.782 315.929 195.82 336.484 184.595C343.473 180.779 347.771 176.913 345.169 167.513ZM501.917 498.094C483.984 508.436 466.051 518.779 449.358 528.406C448.806 538.411 448.321 547.213 447.807 556.53C471.784 570.374 496.553 584.328 520.921 598.949C528.673 603.6 535.457 607.301 543.144 599.642C543.423 599.365 543.859 599.161 544.251 599.095C548.758 598.341 549.192 595.378 549.171 591.407C549.016 562.294 549.085 533.181 549.084 504.067C549.084 502.06 549.084 500.052 549.084 499.788C540.641 495.355 533.628 491.468 526.404 488.024C524.611 487.169 521.746 486.961 520.044 487.806C514.104 490.757 508.458 494.3 501.917 498.094ZM415.52 599.248C415.52 628.157 415.489 657.067 415.587 685.977C415.594 688.024 415.878 690.972 417.191 691.957C422.938 696.265 429.113 700.002 435.102 703.927C460.232 689.245 485.706 674.418 511.074 659.413C512.643 658.485 514.267 656.202 514.355 654.472C514.722 647.276 514.509 640.05 514.509 632.037C486.99 616.176 458.614 599.793 430.166 583.534C429.047 582.895 427.02 582.971 425.803 583.54C422.283 585.188 418.961 587.258 415.52 589.185C415.52 592.227 415.52 595.133 415.52 599.248ZM630.157 510.827C618.484 504.075 606.822 497.305 595.136 490.577C588.826 486.944 580.709 491.67 580.707 498.958C580.701 528.053 580.931 557.15 580.551 586.24C580.46 593.18 581.208 598.026 588.993 599.838C592.047 600.548 594.929 602.873 597.388 605.033C600.064 607.384 602.004 607.211 604.992 605.453C626.63 592.731 648.166 579.802 670.241 567.875C679.304 562.978 685.591 558.357 683.176 546.666C682.401 542.92 681.966 540.46 678.462 538.488C662.557 529.537 646.801 520.321 630.157 510.827ZM295.769 41.0981C294.518 41.8369 293.341 42.7648 292.005 43.284C282.88 46.8294 277.091 52.2265 280.2 63.1159C280.623 64.5993 280.109 66.4337 279.745 68.0411C278.983 71.4006 280.32 73.1361 283.302 74.8394C310.662 90.4658 337.904 106.298 365.196 122.044C371.168 125.489 374.309 123.588 374.313 116.553C374.328 84.9853 374.051 53.4141 374.514 21.8537C374.625 14.2527 373.202 9.06729 366.035 5.45165C362.91 3.87482 361.117 3.24265 357.919 5.12605C337.556 17.1167 317.031 28.8306 295.769 41.0981ZM156.841 384.925C169.786 392.395 182.688 399.942 195.733 407.233C197.307 408.113 200.107 408.411 201.57 407.597C207.676 404.199 213.489 400.274 219.922 396.219C219.922 370.753 219.753 344.555 220.057 318.363C220.122 312.736 219.383 309.023 213.221 307.416C210.15 306.615 207.226 304.438 204.779 302.27C202.112 299.908 200.026 299.994 197.107 301.694C169.847 317.576 142.505 333.318 115.22 349.156C109.195 352.653 109.405 357.582 115.585 361.15C129.065 368.935 142.545 376.719 156.841 384.925ZM282.684 492.488C279.633 490.731 276.664 488.8 273.489 487.306C272.282 486.739 270.303 486.634 269.188 487.248C263.098 490.603 257.167 494.248 250.741 498.054C250.741 530.279 250.707 563.08 250.775 595.88C250.786 601.241 255.17 603.425 260.067 600.605C285.216 586.122 310.21 571.362 335.547 557.216C342.618 553.268 348.049 549.659 345.246 540.413C344.683 538.554 345.131 536.241 345.597 534.251C346.491 530.429 345.155 528.387 341.704 526.438C322.208 515.431 302.877 504.133 282.684 492.488ZM574.267 323.345C574.267 348.018 574.267 372.691 574.267 396.319C580.44 400.034 585.671 403.351 591.092 406.322C592.376 407.025 594.677 407.226 595.872 406.542C623.973 390.482 652.003 374.296 679.997 358.051C684.189 355.618 684.199 352.083 680.088 349.699C652.266 333.561 624.424 317.457 596.498 301.502C595.117 300.713 592.541 300.764 591.114 301.529C585.508 304.533 580.139 307.979 574.267 311.511C574.267 314.651 574.267 318.387 574.267 323.345Z" fill="#002677"/>
</svg>
